<svg width="32" height="33" viewBox="0 0 32 33" fill="none" xmlns="http://www.w3.org/2000/svg">
<path fill-rule="evenodd" clip-rule="evenodd" d="M27.8738 4.62622C26.0945 2.84692 23.4319 2.16666 20 2.16666H12C8.56802 2.16666 5.9055 2.84692 4.12621 4.62622C2.34691 6.40551 1.66665 9.06803 1.66665 12.5V20.5C1.66665 23.932 2.34691 26.5945 4.12621 28.3738C5.9055 30.1531 8.56802 30.8333 12 30.8333H20C23.4319 30.8333 26.0945 30.1531 27.8738 28.3738C29.653 26.5945 30.3333 23.932 30.3333 20.5V12.5C30.3333 9.06803 29.653 6.40551 27.8738 4.62622ZM26.4595 6.04043C27.6802 7.26114 28.3333 9.26529 28.3333 12.5V20.5C28.3333 23.7347 27.6802 25.7388 26.4595 26.9595C25.2388 28.1803 23.2347 28.8333 20 28.8333H12C8.76527 28.8333 6.76113 28.1803 5.54042 26.9595C4.31971 25.7388 3.66665 23.7347 3.66665 20.5V12.5C3.66665 9.26529 4.31971 7.26114 5.54042 6.04043C6.76113 4.81972 8.76527 4.16666 12 4.16666H20C23.2347 4.16666 25.2388 4.81972 26.4595 6.04043Z" fill="#ACACAC"/>
<path fill-rule="evenodd" clip-rule="evenodd" d="M18.3861 11.0852C17.995 10.6953 17.3619 10.6962 16.9719 11.0872L12.2785 15.7939C11.8894 16.1842 11.8894 16.8158 12.2785 17.2061L16.9719 21.9128C17.3619 22.3038 17.995 22.3047 18.3861 21.9148C18.7772 21.5248 18.7781 20.8916 18.3881 20.5006L14.3989 16.5L18.3881 12.4994C18.7781 12.1084 18.7772 11.4752 18.3861 11.0852Z" fill="#ACACAC"/>
</svg>
