<svg width="32" height="33" viewBox="0 0 32 33" fill="none" xmlns="http://www.w3.org/2000/svg">
<path fill-rule="evenodd" clip-rule="evenodd" d="M4.12625 28.3738C5.90554 30.1531 8.56806 30.8333 12 30.8333H20C23.432 30.8333 26.0945 30.1531 27.8738 28.3738C29.6531 26.5945 30.3334 23.932 30.3334 20.5V12.5C30.3334 9.06805 29.6531 6.40553 27.8738 4.62624C26.0945 2.84694 23.432 2.16668 20 2.16668H12C8.56806 2.16668 5.90554 2.84694 4.12625 4.62624C2.34696 6.40553 1.66669 9.06805 1.66669 12.5V20.5C1.66669 23.932 2.34696 26.5945 4.12625 28.3738ZM5.54046 26.9596C4.31975 25.7389 3.66669 23.7347 3.66669 20.5V12.5C3.66669 9.2653 4.31975 7.26116 5.54046 6.04045C6.76117 4.81974 8.76532 4.16668 12 4.16668H20C23.2347 4.16668 25.2389 4.81974 26.4596 6.04045C27.6803 7.26116 28.3334 9.2653 28.3334 12.5V20.5C28.3334 23.7347 27.6803 25.7389 26.4596 26.9596C25.2389 28.1803 23.2347 28.8333 20 28.8333H12C8.76532 28.8333 6.76117 28.1803 5.54046 26.9596Z" fill="#ACACAC"/>
<path fill-rule="evenodd" clip-rule="evenodd" d="M13.6139 21.9148C14.005 22.3047 14.6381 22.3038 15.0281 21.9128L19.7215 17.2061C20.1106 16.8158 20.1106 16.1842 19.7215 15.7939L15.0281 11.0872C14.6381 10.6962 14.005 10.6953 13.6139 11.0852C13.2228 11.4752 13.2219 12.1084 13.6119 12.4994L17.6011 16.5L13.6119 20.5006C13.2219 20.8916 13.2228 21.5248 13.6139 21.9148Z" fill="#ACACAC"/>
</svg>
