<svg width="36" height="31" viewBox="0 0 36 31" fill="none" xmlns="http://www.w3.org/2000/svg">
<path d="M23.625 9.5C24.4903 9.5 25.3362 9.24341 26.0556 8.76268C26.7751 8.28195 27.3358 7.59867 27.667 6.79924C27.9981 5.99982 28.0847 5.12015 27.9159 4.27148C27.7471 3.42282 27.3304 2.64326 26.7186 2.03141C26.1067 1.41956 25.3272 1.00288 24.4785 0.834066C23.6299 0.665256 22.7502 0.751896 21.9508 1.08303C21.1513 1.41416 20.4681 1.97492 19.9873 2.69438C19.5066 3.41385 19.25 4.25971 19.25 5.125C19.25 6.28532 19.7109 7.39812 20.5314 8.21859C21.3519 9.03907 22.4647 9.5 23.625 9.5ZM23.625 3.25C23.9958 3.25 24.3584 3.35997 24.6667 3.566C24.975 3.77202 25.2154 4.06486 25.3573 4.40747C25.4992 4.75008 25.5363 5.12708 25.464 5.4908C25.3916 5.85451 25.213 6.1886 24.9508 6.45083C24.6886 6.71305 24.3545 6.89163 23.9908 6.96397C23.6271 7.03632 23.2501 6.99919 22.9075 6.85728C22.5649 6.71536 22.272 6.47504 22.066 6.1667C21.86 5.85835 21.75 5.49584 21.75 5.125C21.75 4.62772 21.9475 4.15081 22.2992 3.79918C22.6508 3.44755 23.1277 3.25 23.625 3.25ZM29.25 18.25C28.0139 18.25 26.8055 18.6166 25.7777 19.3033C24.7499 19.9901 23.9488 20.9662 23.4757 22.1082C23.0027 23.2503 22.8789 24.5069 23.1201 25.7193C23.3612 26.9317 23.9565 28.0453 24.8306 28.9194C25.7047 29.7935 26.8183 30.3888 28.0307 30.6299C29.2431 30.8711 30.4997 30.7473 31.6418 30.2743C32.7838 29.8012 33.7599 29.0001 34.4467 27.9723C35.1334 26.9445 35.5 25.7361 35.5 24.5C35.5 22.8424 34.8415 21.2527 33.6694 20.0806C32.4973 18.9085 30.9076 18.25 29.25 18.25ZM29.25 28.25C28.5083 28.25 27.7833 28.0301 27.1666 27.618C26.5499 27.206 26.0693 26.6203 25.7854 25.9351C25.5016 25.2498 25.4274 24.4958 25.5721 23.7684C25.7167 23.041 26.0739 22.3728 26.5983 21.8484C27.1228 21.3239 27.791 20.9668 28.5184 20.8221C29.2458 20.6774 29.9998 20.7516 30.6851 21.0355C31.3703 21.3193 31.956 21.7999 32.368 22.4166C32.7801 23.0333 33 23.7583 33 24.5C33 25.4946 32.6049 26.4484 31.9016 27.1517C31.1984 27.8549 30.2446 28.25 29.25 28.25ZM6.75 18.25C5.51387 18.25 4.30549 18.6166 3.27768 19.3033C2.24988 19.9901 1.4488 20.9662 0.975752 22.1082C0.502704 23.2503 0.378933 24.5069 0.620091 25.7193C0.861249 26.9317 1.4565 28.0453 2.33058 28.9194C3.20466 29.7935 4.3183 30.3888 5.53068 30.6299C6.74307 30.8711 7.99973 30.7473 9.14177 30.2743C10.2838 29.8012 11.2599 29.0001 11.9467 27.9723C12.6334 26.9445 13 25.7361 13 24.5C13 23.6792 12.8383 22.8665 12.5242 22.1082C12.2102 21.3499 11.7498 20.661 11.1694 20.0806C10.589 19.5002 9.90005 19.0398 9.14177 18.7258C8.38349 18.4117 7.57076 18.25 6.75 18.25ZM6.75 28.25C6.00832 28.25 5.28329 28.0301 4.66661 27.618C4.04993 27.206 3.56928 26.6203 3.28545 25.9351C3.00162 25.2498 2.92736 24.4958 3.07205 23.7684C3.21675 23.041 3.5739 22.3728 4.09835 21.8484C4.6228 21.3239 5.29098 20.9668 6.01841 20.8221C6.74584 20.6774 7.49984 20.7516 8.18506 21.0355C8.87029 21.3193 9.45595 21.7999 9.86801 22.4166C10.2801 23.0333 10.5 23.7583 10.5 24.5C10.5 25.4946 10.1049 26.4484 9.40165 27.1517C8.69839 27.8549 7.74456 28.25 6.75 28.25ZM28 15.75H21.75C21.5858 15.7501 21.4232 15.7179 21.2714 15.6552C21.1197 15.5924 20.9818 15.5004 20.8656 15.3844L16.75 11.2672L13.5172 14.5L18.8844 19.8656C19.0004 19.9818 19.0924 20.1197 19.1552 20.2714C19.2179 20.4232 19.2501 20.5858 19.25 20.75V28.25C19.25 28.5815 19.1183 28.8995 18.8839 29.1339C18.6495 29.3683 18.3315 29.5 18 29.5C17.6685 29.5 17.3505 29.3683 17.1161 29.1339C16.8817 28.8995 16.75 28.5815 16.75 28.25V21.2672L10.8656 15.3844C10.7494 15.2683 10.6572 15.1304 10.5943 14.9787C10.5314 14.8269 10.499 14.6643 10.499 14.5C10.499 14.3357 10.5314 14.1731 10.5943 14.0213C10.6572 13.8696 10.7494 13.7317 10.8656 13.6156L15.8656 8.61563C15.9817 8.49941 16.1196 8.40721 16.2713 8.3443C16.4231 8.2814 16.5857 8.24902 16.75 8.24902C16.9143 8.24902 17.0769 8.2814 17.2287 8.3443C17.3804 8.40721 17.5183 8.49941 17.6344 8.61563L22.2672 13.25H28C28.3315 13.25 28.6495 13.3817 28.8839 13.6161C29.1183 13.8505 29.25 14.1685 29.25 14.5C29.25 14.8315 29.1183 15.1495 28.8839 15.3839C28.6495 15.6183 28.3315 15.75 28 15.75Z" fill="#8DB600"/>
</svg>
