<svg width="45" height="45" viewBox="0 0 45 45" fill="none" xmlns="http://www.w3.org/2000/svg">
<path d="M22.4997 24.9375C22.256 24.9375 22.0122 24.8813 21.7872 24.75L5.23097 15.1688C4.55597 14.7751 4.33094 13.9125 4.72469 13.2375C5.11844 12.5625 5.96218 12.3375 6.65593 12.7312L22.4997 21.9L38.2497 12.7875C38.9247 12.3938 39.7872 12.6376 40.1809 13.2938C40.5747 13.9688 40.331 14.8312 39.6747 15.225L23.231 24.75C22.9872 24.8625 22.7435 24.9375 22.4997 24.9375Z" fill="#8DB600"/>
<path d="M22.5 41.9251C21.7312 41.9251 21.0938 41.2876 21.0938 40.5188V23.5126C21.0938 22.7438 21.7312 22.1063 22.5 22.1063C23.2687 22.1063 23.9062 22.7438 23.9062 23.5126V40.5188C23.9062 41.2876 23.2687 41.9251 22.5 41.9251Z" fill="#8DB600"/>
<path d="M22.5002 42.6562C20.8502 42.6562 19.219 42.3 17.9252 41.5875L7.91273 36.0188C5.19398 34.5188 3.07526 30.9 3.07526 27.7875V17.1937C3.07526 14.0812 5.19398 10.4813 7.91273 8.96254L17.9252 3.4125C20.494 1.9875 24.5065 1.9875 27.0752 3.4125L37.0877 8.98119C39.8065 10.4812 41.9252 14.1 41.9252 17.2125V27.8063C41.9252 30.9188 39.8065 34.5187 37.0877 36.0374L27.0752 41.5875C25.7815 42.3 24.1502 42.6562 22.5002 42.6562ZM22.5002 5.15624C21.319 5.15624 20.1565 5.4 19.294 5.86875L9.2815 11.4374C7.4815 12.4499 5.88776 15.1312 5.88776 17.2125V27.8063C5.88776 29.8688 7.4815 32.5687 9.2815 33.5812L19.294 39.15C21.0002 40.1062 24.0002 40.1062 25.7065 39.15L35.719 33.5812C37.519 32.5687 39.1127 29.8875 39.1127 27.8063V17.2125C39.1127 15.15 37.519 12.4499 35.719 11.4374L25.7065 5.86875C24.844 5.4 23.6815 5.15624 22.5002 5.15624Z" fill="#8DB600"/>
<path d="M31.8753 26.2313C31.1066 26.2313 30.4691 25.5938 30.4691 24.825V18.7876L13.3691 8.92506C12.6941 8.53131 12.4691 7.66878 12.8628 7.01253C13.2566 6.33753 14.1003 6.11249 14.7753 6.50624L32.5691 16.7813C33.0003 17.0251 33.2816 17.4937 33.2816 18V24.8626C33.2816 25.5938 32.6441 26.2313 31.8753 26.2313Z" fill="#8DB600"/>
</svg>
