<svg width="45" height="45" viewBox="0 0 45 45" fill="none" xmlns="http://www.w3.org/2000/svg">
<path fill-rule="evenodd" clip-rule="evenodd" d="M11.7375 15.9375C8.63291 15.9375 6.09375 18.4767 6.09375 21.5813V34.2C6.09375 37.3046 8.63291 39.8438 11.7375 39.8438H33.2625C36.3671 39.8438 38.9062 37.3046 38.9062 34.2V33.375H36.75C34.1071 33.375 31.5419 31.4424 31.2993 28.5875C31.1479 26.9709 31.7635 25.4607 32.83 24.4124C33.7892 23.434 35.1044 22.875 36.525 22.875H38.9062V21.5813C38.9062 18.4767 36.3671 15.9375 33.2625 15.9375H11.7375ZM3.28125 21.5813C3.28125 16.9234 7.0796 13.125 11.7375 13.125H33.2625C37.9204 13.125 41.7188 16.9234 41.7188 21.5813V24.2813C41.7188 25.0579 41.0891 25.6875 40.3125 25.6875H36.525C35.8518 25.6875 35.2597 25.9485 34.8325 26.3873L34.8073 26.4125C34.3085 26.8995 34.0298 27.5928 34.0999 28.3292L34.1015 28.3457L34.1014 28.3457C34.2006 29.5363 35.3454 30.5625 36.75 30.5625H40.3125C41.0891 30.5625 41.7188 31.1921 41.7188 31.9687V34.2C41.7188 38.8579 37.9204 42.6562 33.2625 42.6562H11.7375C7.0796 42.6562 3.28125 38.8579 3.28125 34.2V21.5813Z" fill="#8DB600"/>
<path fill-rule="evenodd" clip-rule="evenodd" d="M26.4375 7.40626C26.4375 5.89216 24.9243 4.85269 23.5234 5.38367L8.63516 11.009C7.10372 11.5887 6.09375 13.0509 6.09375 14.7V23.2687C6.09375 24.0453 5.46415 24.6749 4.6875 24.6749C3.91085 24.6749 3.28125 24.0453 3.28125 23.2687V14.7C3.28125 11.8869 5.00913 9.37386 7.63984 8.37846L22.5266 2.75375C22.5263 2.75385 22.5269 2.75364 22.5266 2.75375C25.7755 1.52294 29.25 3.93316 29.25 7.40626V14.5312C29.25 15.3079 28.6204 15.9375 27.8438 15.9375C27.0671 15.9375 26.4375 15.3079 26.4375 14.5312V7.40626Z" fill="#8DB600"/>
<path fill-rule="evenodd" clip-rule="evenodd" d="M36.5228 25.6879C35.8495 25.6879 35.2575 25.9489 34.8303 26.3876L34.8051 26.4128C34.3062 26.8998 34.0276 27.5932 34.0977 28.3295L34.0993 28.346L34.0992 28.346C34.1984 29.5366 35.3432 30.5628 36.7478 30.5628H40.3905C40.6935 30.5433 40.8915 30.3063 40.8915 30.0566V26.194C40.8915 25.9444 40.6935 25.7074 40.3905 25.6879H36.5228ZM32.8277 24.4128C33.787 23.4344 35.1022 22.8754 36.5228 22.8754H40.4228C40.4395 22.8754 40.4562 22.8757 40.473 22.8763C42.2598 22.9401 43.704 24.386 43.704 26.194V30.0566C43.704 31.8647 42.2598 33.3106 40.473 33.3744C40.4562 33.375 40.4395 33.3753 40.4228 33.3753H36.7478C34.1049 33.3753 31.5396 31.4428 31.2971 28.5879C31.1457 26.9713 31.7612 25.461 32.8277 24.4128Z" fill="#8DB600"/>
<path fill-rule="evenodd" clip-rule="evenodd" d="M11.7188 22.5C11.7188 21.7233 12.3483 21.0938 13.125 21.0938H26.25C27.0267 21.0938 27.6562 21.7233 27.6562 22.5C27.6562 23.2767 27.0267 23.9062 26.25 23.9062H13.125C12.3483 23.9062 11.7188 23.2767 11.7188 22.5Z" fill="#8DB600"/>
</svg>
