<svg width="10" height="20" viewBox="0 0 10 20" fill="none" xmlns="http://www.w3.org/2000/svg">
<path d="M7.21675 0C6.00825 0 4.84925 0.534 3.99471 1.48453C3.14017 2.43505 2.6601 3.72425 2.6601 5.06849V7.89041H0.221675C0.0995073 7.89041 0 8 0 8.13699V11.863C0 11.9989 0.0985221 12.1096 0.221675 12.1096H2.6601V19.7534C2.6601 19.8893 2.75862 20 2.88177 20H6.23153C6.35369 20 6.4532 19.8904 6.4532 19.7534V12.1096H8.9133C9.01478 12.1096 9.10345 12.0329 9.12808 11.9233L9.96552 8.19726C9.97376 8.1609 9.97443 8.12293 9.9675 8.08624C9.96056 8.04954 9.94619 8.01509 9.92548 7.98551C9.90477 7.95592 9.87827 7.93198 9.84799 7.9155C9.81771 7.89902 9.78445 7.89044 9.75074 7.89041H6.4532V5.06849C6.4532 4.95696 6.47295 4.84652 6.51132 4.74347C6.5497 4.64043 6.60594 4.5468 6.67684 4.46794C6.74774 4.38907 6.83191 4.32651 6.92455 4.28383C7.01719 4.24115 7.11648 4.21918 7.21675 4.21918H9.77832C9.90049 4.21918 10 4.10959 10 3.9726V0.246575C10 0.110685 9.90148 0 9.77832 0H7.21675Z" fill="#8DB600"/>
</svg>
