<svg width="38" height="38" viewBox="0 0 38 38" fill="none" xmlns="http://www.w3.org/2000/svg">
<circle cx="19" cy="19" r="18.25" stroke="white" stroke-opacity="0.25" stroke-width="1.5"/>
<path d="M28 13.662C27.3261 13.9471 26.6115 14.1345 25.8798 14.2178C26.6508 13.7761 27.2276 13.0814 27.5028 12.2631C26.7787 12.6753 25.9849 12.9642 25.1584 13.1205C24.6026 12.5516 23.8659 12.1744 23.0629 12.0473C22.2598 11.9203 21.4354 12.0506 20.7178 12.4181C20.0001 12.7855 19.4295 13.3694 19.0946 14.0791C18.7597 14.7887 18.6792 15.5844 18.8658 16.3423C17.3972 16.272 15.9605 15.907 14.649 15.271C13.3375 14.6351 12.1805 13.7423 11.253 12.6508C10.9248 13.1901 10.7523 13.8032 10.7532 14.4273C10.7532 15.6521 11.4058 16.7342 12.3957 17.3678C11.8094 17.3501 11.236 17.1986 10.7232 16.926V16.969C10.7232 17.7849 11.0182 18.5757 11.5582 19.2073C12.0981 19.8388 12.8499 20.2723 13.6858 20.4341C13.1416 20.5754 12.5708 20.5962 12.0169 20.4949C12.2526 21.1972 12.712 21.8114 13.3308 22.2514C13.9497 22.6915 14.6969 22.9353 15.4678 22.9489C14.7016 23.5245 13.8244 23.95 12.8862 24.201C11.9479 24.4521 10.9672 24.5237 10 24.4119C11.6881 25.4504 13.6533 26.0017 15.6603 26C22.4545 26 26.1686 20.6166 26.1686 15.9478C26.1686 15.7957 26.165 15.642 26.158 15.4908C26.8807 14.991 27.5044 14.3712 28 13.662Z" fill="#8DB600"/>
</svg>
