<svg width="38" height="38" viewBox="0 0 38 38" fill="none" xmlns="http://www.w3.org/2000/svg">
<circle cx="19" cy="19" r="18.25" stroke="white" stroke-opacity="0.25" stroke-width="1.5"/>
<path d="M17.2 22L21.871 19L17.2 16V22ZM27.604 14.17C27.721 14.64 27.802 15.27 27.856 16.07C27.919 16.87 27.946 17.56 27.946 18.16L28 19C28 21.19 27.856 22.8 27.604 23.83C27.379 24.73 26.857 25.31 26.047 25.56C25.624 25.69 24.85 25.78 23.662 25.84C22.492 25.91 21.421 25.94 20.431 25.94L19 26C15.229 26 12.88 25.84 11.953 25.56C11.143 25.31 10.621 24.73 10.396 23.83C10.279 23.36 10.198 22.73 10.144 21.93C10.081 21.13 10.054 20.44 10.054 19.84L10 19C10 16.81 10.144 15.2 10.396 14.17C10.621 13.27 11.143 12.69 11.953 12.44C12.376 12.31 13.15 12.22 14.338 12.16C15.508 12.09 16.579 12.06 17.569 12.06L19 12C22.771 12 25.12 12.16 26.047 12.44C26.857 12.69 27.379 13.27 27.604 14.17Z" fill="#8DB600"/>
</svg>
