<svg width="38" height="38" viewBox="0 0 38 38" fill="none" xmlns="http://www.w3.org/2000/svg">
<circle cx="19" cy="19" r="18.25" stroke="white" stroke-opacity="0.25" stroke-width="1.5"/>
<path fill-rule="evenodd" clip-rule="evenodd" d="M26.6943 17.5H19.051V20.5H23.535C23.1274 22.6 21.1911 24 19.051 23.9C16.4013 23.8 14.3631 21.8 14.2611 19.2C14.1592 16.5 16.2994 14.2 19.051 14.1C20.172 14.1 21.293 14.5 22.2102 15.3L24.5541 13.1C23.1274 11.7 21.0892 11 19.1529 11C14.6688 11 11 14.6 11 19C11 23.4 14.6688 27 19.1529 27C23.8408 27 27 23.8 27 19.2C26.8981 18.6 26.8981 18.1 26.6943 17.5Z" fill="#8DB600"/>
</svg>
