<svg width="38" height="38" viewBox="0 0 38 38" fill="none" xmlns="http://www.w3.org/2000/svg">
<circle cx="19" cy="19" r="18.25" stroke="white" stroke-opacity="0.25" stroke-width="1.5"/>
<path d="M21.2167 9C20.0082 9 18.8492 9.534 17.9947 10.4845C17.1402 11.4351 16.6601 12.7242 16.6601 14.0685V16.8904H14.2217C14.0995 16.8904 14 17 14 17.137V20.863C14 20.9989 14.0985 21.1096 14.2217 21.1096H16.6601V28.7534C16.6601 28.8893 16.7586 29 16.8818 29H20.2315C20.3537 29 20.4532 28.8904 20.4532 28.7534V21.1096H22.9133C23.0148 21.1096 23.1034 21.0329 23.1281 20.9233L23.9655 17.1973C23.9738 17.1609 23.9744 17.1229 23.9675 17.0862C23.9606 17.0495 23.9462 17.0151 23.9255 16.9855C23.9048 16.9559 23.8783 16.932 23.848 16.9155C23.8177 16.899 23.7844 16.8904 23.7507 16.8904H20.4532V14.0685C20.4532 13.957 20.473 13.8465 20.5113 13.7435C20.5497 13.6404 20.6059 13.5468 20.6768 13.4679C20.7477 13.3891 20.8319 13.3265 20.9246 13.2838C21.0172 13.2411 21.1165 13.2192 21.2167 13.2192H23.7783C23.9005 13.2192 24 13.1096 24 12.9726V9.24658C24 9.11068 23.9015 9 23.7783 9H21.2167Z" fill="#8DB600"/>
</svg>
