<svg width="38" height="38" viewBox="0 0 38 38" fill="none" xmlns="http://www.w3.org/2000/svg">
<circle cx="19" cy="19" r="18.25" stroke="white" stroke-opacity="0.25" stroke-width="1.5"/>
<path d="M11 16.5319V16.4873C11 15.5793 11.1725 14.7124 11.4854 13.9172L11.4689 13.9644C11.7662 13.1869 12.2065 12.4731 12.7665 11.8606L12.7622 11.8649C13.8861 10.6503 15.3237 9.77653 16.9132 9.34208L16.9747 9.32809C17.7959 9.10771 18.6422 8.99741 19.4919 9.00005H19.5014H19.5638C20.8779 9.00005 22.1208 9.31059 23.2234 9.8617L23.1749 9.83983C24.2859 10.3861 25.2337 11.2198 25.9217 12.256L25.9373 12.2813C26.6332 13.3262 27.0033 14.5574 27 15.8163L26.9991 15.9064V15.9021V15.9161C26.9991 16.7506 26.9124 17.565 26.7477 18.3497L26.7607 18.2736C26.5998 19.0668 26.3394 19.8361 25.9858 20.5629L26.011 20.5069C25.6868 21.1974 25.2642 21.8363 24.7567 22.4034L24.7628 22.3964C24.2624 22.9419 23.6576 23.3793 22.985 23.6823L22.9504 23.6963C22.2271 24.0196 21.4444 24.1853 20.6534 24.1827H20.584H20.5875C19.9936 24.1789 19.4084 24.0373 18.8773 23.7689L18.8999 23.7794C18.3936 23.5553 17.9743 23.1696 17.7063 22.6816L17.6994 22.6685C17.6162 22.9951 17.5006 23.468 17.3527 24.0874C17.2047 24.7067 17.1068 25.1062 17.0588 25.2858C17.0126 25.4666 16.9271 25.7652 16.8023 26.1816C16.7052 26.5315 16.5942 26.8289 16.4616 27.1141L16.4772 27.0774L16.0768 27.8664C15.8826 28.2487 15.6919 28.5697 15.4821 28.8759L15.5012 28.8462C15.2926 29.1529 15.0343 29.5165 14.7263 29.937L14.5512 30L14.4385 29.874C14.3137 28.5531 14.2513 27.7626 14.2513 27.5025C14.2626 26.5735 14.3597 25.6751 14.5356 24.8056L14.52 24.8974C14.6991 23.9346 14.9765 22.7256 15.3521 21.2706C15.7277 19.8155 15.9444 18.9617 16.0022 18.7092C15.7069 18.0358 15.5701 17.3026 15.6026 16.5669V16.5765C15.6026 15.8321 15.8445 15.1454 16.2527 14.5908L16.2466 14.5995C16.4227 14.3182 16.6663 14.0863 16.9548 13.9253C17.2432 13.7643 17.5673 13.6794 17.897 13.6784C17.9204 13.6766 17.9473 13.6766 17.975 13.6766C18.4179 13.6766 18.8149 13.8743 19.0836 14.1875L19.0854 14.1892C19.3506 14.5199 19.5118 14.945 19.5118 15.4087L19.5101 15.4865V15.483C19.4516 16.3295 19.2596 17.161 18.9415 17.9464L18.9606 17.8931C18.6593 18.6368 18.4745 19.4233 18.4127 20.2243L18.411 20.2523L18.4101 20.2943C18.4101 20.7999 18.6268 21.2548 18.9718 21.5689L18.9736 21.5706C19.3194 21.8952 19.784 22.0946 20.2954 22.0946L20.3387 22.0937H20.337H20.3578C20.8172 22.0937 21.2489 21.9765 21.6268 21.7709L21.6129 21.7779C21.9973 21.572 22.3309 21.2814 22.5889 20.9277L22.5941 20.9198C22.8472 20.5734 23.0804 20.1797 23.2763 19.7651L23.2945 19.7213C23.4843 19.3233 23.6481 18.8588 23.7599 18.3742L23.7695 18.3278C23.8614 17.956 23.9498 17.481 24.0122 16.9982L24.02 16.9282C24.0702 16.5529 24.0997 16.1173 24.1014 15.6746V15.6729C24.1372 15.0399 24.0332 14.4068 23.7971 13.8192C23.5611 13.2317 23.1987 12.7043 22.7363 12.2752L22.7337 12.2726C21.7351 11.4253 20.456 10.9904 19.153 11.0549H19.1642C18.395 11.0316 17.629 11.1642 16.9115 11.4451C16.194 11.7259 15.5397 12.1492 14.9872 12.6899L14.9889 12.6881C14.4365 13.2228 14.0018 13.8689 13.7131 14.5844C13.4244 15.2998 13.2882 16.0686 13.3134 16.8407V16.8319V16.8424C13.3134 17.2212 13.3707 17.586 13.4764 17.9298L13.4695 17.9036C13.5579 18.2158 13.6732 18.4888 13.817 18.7416L13.8075 18.7232C13.9283 18.925 14.041 19.1163 14.1456 19.2971C14.2218 19.4064 14.2764 19.5359 14.3007 19.6759L14.3016 19.682C14.2863 20.0044 14.2208 20.3223 14.1074 20.6241L14.1144 20.6031C13.9895 20.9816 13.8353 21.1709 13.6515 21.1709C13.6347 21.1709 13.5639 21.1583 13.4391 21.1332C13.0077 21.0022 12.6179 20.7591 12.3088 20.4282L12.308 20.4264C11.9855 20.09 11.7295 19.6945 11.5539 19.2612L11.5452 19.2367C11.3726 18.8127 11.2394 18.3734 11.1474 17.9245L11.1387 17.8738C11.0475 17.4327 11.0013 16.9834 11.0009 16.5328V16.531L11 16.5319Z" fill="#8DB600"/>
</svg>
