<svg width="38" height="38" viewBox="0 0 38 38" fill="none" xmlns="http://www.w3.org/2000/svg">
<circle cx="19" cy="19" r="18.25" stroke="white" stroke-opacity="0.25" stroke-width="1.5"/>
<path d="M19 16.3333C18.2928 16.3333 17.6145 16.6143 17.1144 17.1144C16.6143 17.6145 16.3333 18.2928 16.3333 19C16.3333 19.7072 16.6143 20.3855 17.1144 20.8856C17.6145 21.3857 18.2928 21.6667 19 21.6667C19.7072 21.6667 20.3855 21.3857 20.8856 20.8856C21.3857 20.3855 21.6667 19.7072 21.6667 19C21.6667 18.2928 21.3857 17.6145 20.8856 17.1144C20.3855 16.6143 19.7072 16.3333 19 16.3333Z" fill="#8DB600"/>
<path fill-rule="evenodd" clip-rule="evenodd" d="M14.4483 11.2511C17.4735 10.9163 20.5265 10.9163 23.5517 11.2511C25.2044 11.4353 26.5369 12.7342 26.7309 14.3903C27.0897 17.4527 27.0897 20.5464 26.7309 23.6088C26.5369 25.2648 25.2044 26.5638 23.5526 26.7489C20.5271 27.0837 17.4738 27.0837 14.4483 26.7489C12.7956 26.5638 11.4632 25.2648 11.2691 23.6097C10.9103 20.547 10.9103 17.453 11.2691 14.3903C11.4632 12.7342 12.7956 11.4353 14.4483 11.2511ZM23.3515 13.7864C23.1207 13.7864 22.8994 13.8779 22.7361 14.0409C22.5729 14.2038 22.4812 14.4248 22.4812 14.6553C22.4812 14.8857 22.5729 15.1067 22.7361 15.2696C22.8994 15.4326 23.1207 15.5241 23.3515 15.5241C23.5824 15.5241 23.8037 15.4326 23.9669 15.2696C24.1302 15.1067 24.2218 14.8857 24.2218 14.6553C24.2218 14.4248 24.1302 14.2038 23.9669 14.0409C23.8037 13.8779 23.5824 13.7864 23.3515 13.7864ZM14.8661 18.9995C14.8661 17.905 15.3016 16.8552 16.0769 16.0813C16.8521 15.3073 17.9036 14.8725 19 14.8725C20.0964 14.8725 21.1479 15.3073 21.9232 16.0813C22.6984 16.8552 23.134 17.905 23.134 18.9995C23.134 20.0941 22.6984 21.1438 21.9232 21.9178C21.1479 22.6918 20.0964 23.1266 19 23.1266C17.9036 23.1266 16.8521 22.6918 16.0769 21.9178C15.3016 21.1438 14.8661 20.0941 14.8661 18.9995Z" fill="#8DB600"/>
</svg>
