<svg width="16" height="16" viewBox="0 0 16 16" fill="none" xmlns="http://www.w3.org/2000/svg">
<path fill-rule="evenodd" clip-rule="evenodd" d="M15.6943 6.5H8.05096V9.5H12.535C12.1274 11.6 10.1911 13 8.05096 12.9C5.40127 12.8 3.36306 10.8 3.26115 8.2C3.15924 5.5 5.29936 3.2 8.05096 3.1C9.17198 3.1 10.293 3.5 11.2102 4.3L13.5541 2.1C12.1274 0.7 10.0892 0 8.15287 0C3.66879 0 0 3.6 0 8C0 12.4 3.66879 16 8.15287 16C12.8408 16 16 12.8 16 8.2C15.8981 7.6 15.8981 7.1 15.6943 6.5Z" fill="#8DB600"/>
</svg>
