<svg width="18" height="16" viewBox="0 0 18 16" fill="none" xmlns="http://www.w3.org/2000/svg">
<path d="M9 16L7.695 14.8665C6.18 13.5441 4.9275 12.4033 3.9375 11.4441C2.9475 10.485 2.16 9.62383 1.575 8.8606C0.99 8.09795 0.5814 7.39691 0.3492 6.75749C0.117 6.11807 0.0006 5.46412 0 4.79564C0 3.42961 0.4725 2.28883 1.4175 1.3733C2.3625 0.457766 3.54 0 4.95 0C5.73 0 6.4725 0.159855 7.1775 0.479564C7.8825 0.799273 8.49 1.24977 9 1.83106C9.51 1.24977 10.1175 0.799273 10.8225 0.479564C11.5275 0.159855 12.27 0 13.05 0C14.46 0 15.6375 0.457766 16.5825 1.3733C17.5275 2.28883 18 3.42961 18 4.79564C18 5.46412 17.8836 6.11807 17.6508 6.75749C17.418 7.39691 17.0094 8.09795 16.425 8.8606C15.84 9.62383 15.0525 10.485 14.0625 11.4441C13.0725 12.4033 11.82 13.5441 10.305 14.8665L9 16ZM9 13.6458C10.44 12.396 11.625 11.3241 12.555 10.4301C13.485 9.53606 14.22 8.75887 14.76 8.09853C15.3 7.43702 15.675 6.84817 15.885 6.33199C16.095 5.8158 16.2 5.30369 16.2 4.79564C16.2 3.92371 15.9 3.19709 15.3 2.6158C14.7 2.03451 13.95 1.74387 13.05 1.74387C12.345 1.74387 11.6925 1.93628 11.0925 2.32109C10.4925 2.7059 10.08 3.19651 9.855 3.79292H8.145C7.92 3.19709 7.5075 2.70648 6.9075 2.32109C6.3075 1.93569 5.655 1.74329 4.95 1.74387C4.05 1.74387 3.3 2.03451 2.7 2.6158C2.1 3.19709 1.8 3.92371 1.8 4.79564C1.8 5.30427 1.905 5.81668 2.115 6.33286C2.325 6.84905 2.7 7.4376 3.24 8.09853C3.78 8.75945 4.515 9.53693 5.445 10.431C6.375 11.325 7.56 12.3966 9 13.6458Z" fill="white"/>
</svg>
