<svg width="16" height="16" viewBox="0 0 16 16" fill="none" xmlns="http://www.w3.org/2000/svg">
<path d="M8 5.33333C7.29276 5.33333 6.61448 5.61429 6.11438 6.11438C5.61429 6.61448 5.33333 7.29276 5.33333 8C5.33333 8.70724 5.61429 9.38552 6.11438 9.88562C6.61448 10.3857 7.29276 10.6667 8 10.6667C8.70724 10.6667 9.38552 10.3857 9.88562 9.88562C10.3857 9.38552 10.6667 8.70724 10.6667 8C10.6667 7.29276 10.3857 6.61448 9.88562 6.11438C9.38552 5.61429 8.70724 5.33333 8 5.33333Z" fill="#8DB600"/>
<path fill-rule="evenodd" clip-rule="evenodd" d="M3.44833 0.251077C6.47352 -0.0836924 9.52651 -0.0836924 12.5517 0.251077C14.2044 0.435275 15.5369 1.73421 15.7309 3.39025C16.0897 6.45267 16.0897 9.54639 15.7309 12.6088C15.5369 14.2648 14.2044 15.5638 12.5526 15.7489C9.5271 16.0837 6.47381 16.0837 3.44833 15.7489C1.79562 15.5638 0.46318 14.2648 0.269102 12.6097C-0.0897006 9.54697 -0.0897006 6.45296 0.269102 3.39025C0.46318 1.73421 1.79562 0.435275 3.44833 0.251077ZM12.3515 2.7864C12.1207 2.7864 11.8994 2.87794 11.7361 3.04088C11.5729 3.20382 11.4812 3.42482 11.4812 3.65525C11.4812 3.88569 11.5729 4.10668 11.7361 4.26963C11.8994 4.43257 12.1207 4.52411 12.3515 4.52411C12.5824 4.52411 12.8037 4.43257 12.9669 4.26963C13.1302 4.10668 13.2218 3.88569 13.2218 3.65525C13.2218 3.42482 13.1302 3.20382 12.9669 3.04088C12.8037 2.87794 12.5824 2.7864 12.3515 2.7864ZM3.86607 7.99953C3.86607 6.90497 4.30161 5.85523 5.07688 5.08126C5.85214 4.30728 6.90363 3.87247 8.00002 3.87247C9.09641 3.87247 10.1479 4.30728 10.9232 5.08126C11.6984 5.85523 12.134 6.90497 12.134 7.99953C12.134 9.0941 11.6984 10.1438 10.9232 10.9178C10.1479 11.6918 9.09641 12.1266 8.00002 12.1266C6.90363 12.1266 5.85214 11.6918 5.07688 10.9178C4.30161 10.1438 3.86607 9.0941 3.86607 7.99953Z" fill="#8DB600"/>
</svg>
