<svg width="50" height="22" viewBox="0 0 50 22" fill="none" xmlns="http://www.w3.org/2000/svg">
<path d="M0 0H50L40 22H0V0Z" fill="#EE6400"/>
<path d="M15.7656 6.04688V16H13.8311L10.707 9.77246V16H8.80664V6.04688H10.7139L13.8652 12.3428V6.04688H15.7656ZM23.7869 14.3457V16H19.4598V14.3457H23.7869ZM20.0818 6.04688V16H18.0789V6.04688H20.0818ZM23.2059 10.0801V11.6865H19.4598V10.0801H23.2059ZM23.7732 6.04688V7.70801H19.4598V6.04688H23.7732ZM27.6861 14.5098L29.2789 6.04688H30.3316L30.6461 7.35938L28.9371 16H27.7955L27.6861 14.5098ZM27.1393 6.04688L28.4244 14.5303L28.2057 16H26.9479L25.1637 6.04688H27.1393ZM31.8014 14.4961L33.0797 6.04688H35.0484L33.2779 16H32.0133L31.8014 14.4961ZM30.94 6.04688L32.5465 14.5576L32.4166 16H31.275L29.5729 7.3457L29.8941 6.04688H30.94Z" fill="white"/>
</svg>
