<svg width="16" height="21" viewBox="0 0 16 21" fill="none" xmlns="http://www.w3.org/2000/svg">
<path d="M0 7.5319V7.48728C0 6.57926 0.17249 5.71236 0.485399 4.91718L0.46893 4.96442C0.766239 4.18689 1.20649 3.47308 1.76651 2.86057L1.76217 2.86495C2.88608 1.6503 4.32374 0.776529 5.9132 0.342085L5.97475 0.328088C6.79589 0.107705 7.64221 -0.00259018 8.49189 4.61628e-05H8.50142H8.56383C9.87788 4.61628e-05 11.1208 0.310593 12.2234 0.861704L12.1749 0.839834C13.2859 1.3861 14.2337 2.21978 14.9217 3.25597L14.9373 3.28134C15.6332 4.3262 16.0033 5.55736 16 6.81633L15.9991 6.90643V6.90206V6.91605C15.9991 7.75059 15.9124 8.56501 15.7477 9.34969L15.7607 9.27358C15.5998 10.0668 15.3394 10.8361 14.9858 11.5629L15.011 11.5069C14.6868 12.1974 14.2642 12.8363 13.7567 13.4034L13.7628 13.3964C13.2624 13.9419 12.6576 14.3793 11.985 14.6823L11.9504 14.6963C11.2271 15.0196 10.4444 15.1853 9.65338 15.1827H9.58404H9.5875C8.99356 15.1789 8.40843 15.0373 7.87734 14.7689L7.89988 14.7794C7.39363 14.5553 6.9743 14.1696 6.70631 13.6816L6.69938 13.6685C6.61617 13.9951 6.5006 14.468 6.35266 15.0874C6.20473 15.7067 6.10679 16.1062 6.05882 16.2858C6.0126 16.4666 5.92707 16.7652 5.80226 17.1816C5.70518 17.5315 5.59423 17.8289 5.46161 18.1141L5.47721 18.0774L5.07676 18.8664C4.8826 19.2487 4.69191 19.5697 4.48214 19.8759L4.50121 19.8462C4.29261 20.1529 4.0343 20.5165 3.72631 20.937L3.55122 21L3.43853 20.874C3.31372 19.5531 3.25131 18.7626 3.25131 18.5025C3.26258 17.5735 3.35966 16.6751 3.53561 15.8056L3.52001 15.8974C3.69915 14.9346 3.97652 13.7256 4.35213 12.2706C4.72773 10.8155 4.94443 9.96174 5.00221 9.70922C4.70686 9.03584 4.57009 8.30256 4.60263 7.56689V7.57651C4.60263 6.83207 4.84446 6.14537 5.25271 5.59076L5.24665 5.59951C5.42271 5.31822 5.66627 5.08633 5.95476 4.92531C6.24325 4.76429 6.56734 4.67935 6.89701 4.67837C6.92041 4.67662 6.94728 4.67662 6.97502 4.67662C7.41794 4.67662 7.81493 4.87432 8.08363 5.18749L8.08537 5.18924C8.3506 5.5199 8.51182 5.94505 8.51182 6.40868L8.51009 6.48654V6.48304C8.45156 7.32945 8.25961 8.16103 7.94148 8.94641L7.96055 8.89305C7.65932 9.63679 7.47451 10.4233 7.41274 11.2243L7.41101 11.2523L7.41014 11.2943C7.41014 11.7999 7.62684 12.2548 7.97182 12.5689L7.97355 12.5706C8.3194 12.8952 8.784 13.0946 9.2954 13.0946L9.33874 13.0937H9.337H9.35781C9.8172 13.0937 10.2489 12.9765 10.6268 12.7709L10.6129 12.7779C10.9973 12.572 11.3309 12.2814 11.5889 11.9277L11.5941 11.9198C11.8472 11.5734 12.0804 11.1797 12.2763 10.7651L12.2945 10.7213C12.4843 10.3233 12.6481 9.85881 12.7599 9.37418L12.7695 9.32782C12.8614 8.95604 12.9498 8.48103 13.0122 7.99815L13.02 7.92817C13.0702 7.55289 13.0997 7.11725 13.1014 6.67461V6.67286C13.1372 6.03987 13.0332 5.40677 12.7971 4.81923C12.5611 4.23168 12.1987 3.70434 11.7363 3.27522L11.7337 3.2726C10.7351 2.42532 9.45602 1.99035 8.15298 2.0549H8.16424C7.39503 2.03157 6.629 2.16424 5.91152 2.44508C5.19403 2.72592 4.53968 3.1492 3.98721 3.68987L3.98894 3.68812C3.43648 4.2228 3.00176 4.8689 2.71308 5.58436C2.42441 6.29982 2.28824 7.06861 2.31345 7.84069V7.83195V7.84244C2.31345 8.22122 2.37066 8.58601 2.4764 8.92979L2.46947 8.90355C2.55788 9.21585 2.67316 9.48878 2.81705 9.74159L2.80752 9.72322C2.92829 9.925 3.04097 10.1163 3.14556 10.2971C3.22184 10.4064 3.27645 10.5359 3.30072 10.6759L3.30158 10.682C3.28629 11.0044 3.22076 11.3223 3.10742 11.6241L3.11436 11.6031C2.98954 11.9816 2.83525 12.1709 2.65149 12.1709C2.63474 12.1709 2.56395 12.1583 2.43913 12.1332C2.00767 12.0022 1.6179 11.7591 1.30884 11.4282L1.30798 11.4264C0.985467 11.09 0.729523 10.6945 0.553875 10.2612L0.545208 10.2367C0.372562 9.81272 0.23937 9.37344 0.147353 8.92454L0.138686 8.87381C0.0475273 8.43271 0.00134702 7.98336 0.000866785 7.53277V7.53102L0 7.5319Z" fill="#8DB600"/>
</svg>
