<svg width="45" height="45" viewBox="0 0 45 45" fill="none" xmlns="http://www.w3.org/2000/svg">
<path fill-rule="evenodd" clip-rule="evenodd" d="M22.5 5.15625C12.8553 5.15625 5.15625 12.923 5.15625 22.5C5.15625 23.2766 4.52665 23.9062 3.75 23.9062C2.97335 23.9062 2.34375 23.2766 2.34375 22.5C2.34375 11.377 11.2947 2.34375 22.5 2.34375C29.1707 2.34375 34.166 5.13001 37.4657 7.88265C38.387 8.65127 39.1795 9.41972 39.8438 10.1288V4.8C39.8438 4.02335 40.4734 3.39375 41.25 3.39375C42.0266 3.39375 42.6562 4.02335 42.6562 4.8V14.175C42.6562 14.9517 42.0266 15.5813 41.25 15.5813H32.925C32.1483 15.5813 31.5187 14.9517 31.5187 14.175C31.5187 13.3983 32.1483 12.7688 32.925 12.7688H38.4361C37.7363 11.9576 36.8118 10.9998 35.664 10.0423C32.7153 7.58249 28.3356 5.15625 22.5 5.15625ZM41.25 21.0938C42.0266 21.0938 42.6562 21.7234 42.6562 22.5C42.6562 33.6266 33.6266 42.6562 22.5 42.6562C16.8366 42.6562 12.3459 39.8059 9.33961 37.0791C8.54163 36.3553 7.83929 35.6324 7.2375 34.9602V40.2C7.2375 40.9767 6.6079 41.6063 5.83125 41.6063C5.0546 41.6063 4.425 40.9767 4.425 40.2V30.825C4.425 30.0484 5.0546 29.4188 5.83125 29.4188H14.3063C15.0829 29.4188 15.7125 30.0484 15.7125 30.825C15.7125 31.6017 15.0829 32.2313 14.3063 32.2313H8.60081C9.27729 33.0537 10.1595 34.0258 11.2291 34.9959C13.9697 37.4816 17.8134 39.8438 22.5 39.8438C32.0733 39.8438 39.8438 32.0733 39.8438 22.5C39.8438 21.7234 40.4734 21.0938 41.25 21.0938Z" fill="#8DB600"/>
</svg>
