<svg width="117" height="22" viewBox="0 0 117 22" fill="none" xmlns="http://www.w3.org/2000/svg">
<path d="M0 0H50L40 22H0V0Z" fill="#F60000"/>
<path d="M11.0176 13.3818C11.0176 13.2041 11.0016 13.0423 10.9697 12.8965C10.9378 12.7507 10.8695 12.6162 10.7646 12.4932C10.6644 12.3701 10.5163 12.2471 10.3203 12.124C10.1289 12.001 9.87826 11.8734 9.56836 11.7412C9.19922 11.5863 8.84147 11.4222 8.49512 11.249C8.14876 11.0713 7.83659 10.8662 7.55859 10.6338C7.2806 10.4014 7.05957 10.1279 6.89551 9.81348C6.736 9.49447 6.65625 9.12077 6.65625 8.69238C6.65625 8.27311 6.73145 7.89258 6.88184 7.55078C7.03678 7.20898 7.25553 6.91732 7.53809 6.67578C7.82064 6.42969 8.15104 6.24056 8.5293 6.1084C8.91211 5.97624 9.33822 5.91016 9.80762 5.91016C10.4456 5.91016 10.9971 6.04232 11.4619 6.30664C11.9313 6.57096 12.2936 6.93327 12.5488 7.39355C12.8086 7.85384 12.9385 8.38249 12.9385 8.97949H10.9424C10.9424 8.69694 10.9014 8.44857 10.8193 8.23438C10.7419 8.01562 10.6165 7.84473 10.4434 7.72168C10.2702 7.59863 10.0469 7.53711 9.77344 7.53711C9.51823 7.53711 9.30632 7.58952 9.1377 7.69434C8.97363 7.7946 8.85059 7.93359 8.76855 8.11133C8.69108 8.28451 8.65234 8.48047 8.65234 8.69922C8.65234 8.86328 8.69108 9.01139 8.76855 9.14355C8.85059 9.27116 8.96224 9.38737 9.10352 9.49219C9.24479 9.59245 9.41113 9.69043 9.60254 9.78613C9.7985 9.88184 10.0127 9.97526 10.2451 10.0664C10.6963 10.2441 11.0951 10.4401 11.4414 10.6543C11.7878 10.8639 12.0771 11.1009 12.3096 11.3652C12.542 11.625 12.7174 11.9189 12.8359 12.2471C12.9544 12.5752 13.0137 12.9489 13.0137 13.3682C13.0137 13.7829 12.9408 14.1611 12.7949 14.5029C12.6536 14.8402 12.4463 15.1318 12.1729 15.3779C11.8994 15.6195 11.569 15.8063 11.1816 15.9385C10.7988 16.0706 10.3704 16.1367 9.89648 16.1367C9.4362 16.1367 9.00098 16.0729 8.59082 15.9453C8.18066 15.8132 7.81836 15.6149 7.50391 15.3506C7.19401 15.0817 6.9502 14.7422 6.77246 14.332C6.59473 13.9173 6.50586 13.4274 6.50586 12.8623H8.50879C8.50879 13.1631 8.53841 13.4206 8.59766 13.6348C8.6569 13.8444 8.74805 14.013 8.87109 14.1406C8.99414 14.2637 9.14453 14.3571 9.32227 14.4209C9.50456 14.4801 9.71191 14.5098 9.94434 14.5098C10.2087 14.5098 10.4183 14.4596 10.5732 14.3594C10.7327 14.2591 10.8467 14.1247 10.915 13.9561C10.9834 13.7874 11.0176 13.596 11.0176 13.3818ZM18.6697 7.82422L16.5301 16H14.4178L17.5281 6.04688H18.8475L18.6697 7.82422ZM20.3582 16L18.2049 7.82422L18.0066 6.04688H19.3465L22.4842 16H20.3582ZM20.4334 12.2881V13.9492H15.9422V12.2881H20.4334ZM29.6578 14.3457V16H25.5221V14.3457H29.6578ZM26.1373 6.04688V16H24.1344V6.04688H26.1373ZM37.2416 14.3457V16H32.9145V14.3457H37.2416ZM33.5365 6.04688V16H31.5336V6.04688H33.5365ZM36.6605 10.0801V11.6865H32.9145V10.0801H36.6605ZM37.2279 6.04688V7.70801H32.9145V6.04688H37.2279Z" fill="white"/>
<path d="M49.1538 0H117L106.338 22H40L49.1538 0Z" fill="#111111"/>
<path d="M58.5146 14.4072V16H52.6494V14.6396L55.3428 11.2148C55.6025 10.8548 55.8053 10.5404 55.9512 10.2715C56.097 9.99805 56.2018 9.75423 56.2656 9.54004C56.3294 9.32129 56.3613 9.11621 56.3613 8.9248C56.3613 8.62858 56.3271 8.37565 56.2588 8.16602C56.1904 7.95182 56.0879 7.78776 55.9512 7.67383C55.819 7.55534 55.6549 7.49609 55.459 7.49609C55.222 7.49609 55.026 7.56901 54.8711 7.71484C54.7161 7.86068 54.5999 8.0612 54.5225 8.31641C54.4495 8.56706 54.4131 8.85189 54.4131 9.1709H52.4922C52.4922 8.57389 52.613 8.02702 52.8545 7.53027C53.1006 7.03353 53.4447 6.63932 53.8867 6.34766C54.3333 6.05143 54.8688 5.90332 55.4932 5.90332C56.1038 5.90332 56.6143 6.01725 57.0244 6.24512C57.4391 6.47298 57.7513 6.79883 57.9609 7.22266C58.1751 7.64193 58.2822 8.14323 58.2822 8.72656C58.2822 9.05924 58.2389 9.38281 58.1523 9.69727C58.0658 10.0072 57.9427 10.3171 57.7832 10.627C57.6237 10.9323 57.4277 11.2445 57.1953 11.5635C56.9629 11.8825 56.7008 12.2129 56.4092 12.5547L55.1104 14.4072H58.5146ZM66.2078 10.1484V11.8779C66.2078 12.6253 66.1372 13.2679 65.9959 13.8057C65.8546 14.3434 65.6564 14.7855 65.4012 15.1318C65.146 15.4736 64.8429 15.7266 64.492 15.8906C64.1411 16.0547 63.7537 16.1367 63.3299 16.1367C62.9926 16.1367 62.6759 16.0843 62.3797 15.9795C62.0835 15.8747 61.8146 15.7152 61.573 15.501C61.3361 15.2822 61.131 15.0065 60.9578 14.6738C60.7892 14.3366 60.6593 13.9378 60.5682 13.4775C60.477 13.0127 60.4314 12.4795 60.4314 11.8779V10.1484C60.4314 9.40104 60.5021 8.76074 60.6434 8.22754C60.7892 7.68978 60.9897 7.25 61.2449 6.9082C61.5001 6.56641 61.8032 6.31576 62.1541 6.15625C62.5096 5.99219 62.8992 5.91016 63.323 5.91016C63.6557 5.91016 63.9702 5.96257 64.2664 6.06738C64.5672 6.16764 64.8338 6.32487 65.0662 6.53906C65.3032 6.75326 65.506 7.02897 65.6746 7.36621C65.8478 7.69889 65.9799 8.09766 66.0711 8.5625C66.1622 9.02279 66.2078 9.55143 66.2078 10.1484ZM64.2869 12.1445V9.86816C64.2869 9.51725 64.271 9.20964 64.2391 8.94531C64.2117 8.68099 64.173 8.45768 64.1229 8.27539C64.0727 8.0931 64.0066 7.94499 63.9246 7.83105C63.8426 7.71712 63.7514 7.63509 63.6512 7.58496C63.5509 7.53027 63.4393 7.50293 63.3162 7.50293C63.1704 7.50293 63.0382 7.54395 62.9197 7.62598C62.8012 7.70801 62.6987 7.84245 62.6121 8.0293C62.5255 8.21159 62.4594 8.4554 62.4139 8.76074C62.3729 9.06152 62.3523 9.43066 62.3523 9.86816V12.1445C62.3523 12.4954 62.366 12.8053 62.3934 13.0742C62.4253 13.3431 62.4686 13.5732 62.5232 13.7646C62.5825 13.9515 62.6486 14.1019 62.7215 14.2158C62.799 14.3298 62.8878 14.4141 62.9881 14.4688C63.0929 14.5189 63.2068 14.5439 63.3299 14.5439C63.4757 14.5439 63.6079 14.5029 63.7264 14.4209C63.8494 14.3343 63.952 14.1976 64.034 14.0107C64.116 13.8239 64.1775 13.5778 64.2186 13.2725C64.2641 12.9626 64.2869 12.5866 64.2869 12.1445ZM68.234 8.4873V7.96094C68.234 7.58268 68.3023 7.23861 68.4391 6.92871C68.5803 6.61882 68.7877 6.37044 69.0611 6.18359C69.3391 5.99674 69.6832 5.90332 70.0934 5.90332C70.5081 5.90332 70.8544 5.99674 71.1324 6.18359C71.4104 6.37044 71.6155 6.61882 71.7477 6.92871C71.8844 7.23861 71.9527 7.58268 71.9527 7.96094V8.4873C71.9527 8.85645 71.8844 9.19596 71.7477 9.50586C71.6109 9.81576 71.4036 10.0641 71.1256 10.251C70.8521 10.4378 70.5104 10.5312 70.1002 10.5312C69.69 10.5312 69.346 10.4378 69.068 10.251C68.79 10.0641 68.5803 9.81576 68.4391 9.50586C68.3023 9.19596 68.234 8.85645 68.234 8.4873ZM69.485 7.96094V8.4873C69.485 8.64225 69.5077 8.79036 69.5533 8.93164C69.5989 9.06836 69.6673 9.18001 69.7584 9.2666C69.8495 9.34863 69.9635 9.38965 70.1002 9.38965C70.2369 9.38965 70.3486 9.34863 70.4352 9.2666C70.5217 9.18001 70.5855 9.06836 70.6266 8.93164C70.6721 8.79036 70.6949 8.64225 70.6949 8.4873V7.96094C70.6949 7.79688 70.6721 7.64648 70.6266 7.50977C70.5855 7.36849 70.5195 7.25684 70.4283 7.1748C70.3372 7.08822 70.2232 7.04492 70.0865 7.04492C69.9498 7.04492 69.8359 7.08822 69.7447 7.1748C69.6581 7.25684 69.5921 7.36849 69.5465 7.50977C69.5055 7.64648 69.485 7.79688 69.485 7.96094ZM72.1646 14.0928V13.5596C72.1646 13.1859 72.2353 12.8441 72.3766 12.5342C72.5178 12.2243 72.7252 11.9759 72.9986 11.7891C73.2766 11.6022 73.6184 11.5088 74.024 11.5088C74.4433 11.5088 74.7896 11.6022 75.0631 11.7891C75.3365 11.9759 75.5416 12.2243 75.6783 12.5342C75.8196 12.8441 75.8902 13.1859 75.8902 13.5596V14.0928C75.8902 14.4665 75.8219 14.8083 75.6852 15.1182C75.5484 15.4235 75.3411 15.6696 75.0631 15.8564C74.7896 16.0433 74.4479 16.1367 74.0377 16.1367C73.6275 16.1367 73.2812 16.0433 72.9986 15.8564C72.7206 15.6696 72.511 15.4212 72.3697 15.1113C72.233 14.8014 72.1646 14.4619 72.1646 14.0928ZM73.4156 13.5596V14.0859C73.4156 14.2454 73.443 14.3958 73.4977 14.5371C73.5523 14.6738 73.6253 14.7855 73.7164 14.8721C73.8121 14.9541 73.9192 14.9951 74.0377 14.9951C74.2018 14.9951 74.3271 14.9541 74.4137 14.8721C74.5003 14.7855 74.5572 14.6738 74.5846 14.5371C74.6165 14.3958 74.6324 14.2454 74.6324 14.0859V13.5664C74.6324 13.4023 74.6096 13.252 74.5641 13.1152C74.523 12.974 74.457 12.8623 74.3658 12.7803C74.2792 12.6937 74.1676 12.6504 74.0309 12.6504C73.8896 12.6504 73.7734 12.6937 73.6822 12.7803C73.5911 12.8623 73.5227 12.974 73.4771 13.1152C73.4361 13.252 73.4156 13.4001 73.4156 13.5596ZM74.5299 7.47559L70.4488 15.2549L69.5328 14.7354L73.6139 6.95605L74.5299 7.47559ZM88.9318 10.251V11.9121C88.9318 12.6139 88.8452 13.2292 88.6721 13.7578C88.5034 14.2819 88.2619 14.7217 87.9475 15.0771C87.6376 15.4281 87.2616 15.6924 86.8195 15.8701C86.382 16.0479 85.8967 16.1367 85.3635 16.1367C84.8303 16.1367 84.3426 16.0479 83.9006 15.8701C83.4631 15.6924 83.0848 15.4281 82.7658 15.0771C82.4514 14.7217 82.2076 14.2819 82.0344 13.7578C81.8612 13.2292 81.7746 12.6139 81.7746 11.9121V10.251C81.7746 9.53092 81.8589 8.90202 82.0275 8.36426C82.1962 7.82194 82.44 7.37077 82.759 7.01074C83.078 6.64616 83.4562 6.37272 83.8937 6.19043C84.3312 6.00358 84.8166 5.91016 85.3498 5.91016C85.883 5.91016 86.3684 6.00358 86.8059 6.19043C87.2434 6.37272 87.6216 6.64616 87.9406 7.01074C88.2596 7.37077 88.5034 7.82194 88.6721 8.36426C88.8452 8.90202 88.9318 9.53092 88.9318 10.251ZM86.9426 11.9121V10.2373C86.9426 9.76335 86.9084 9.36003 86.84 9.02734C86.7717 8.6901 86.6691 8.41439 86.5324 8.2002C86.3957 7.986 86.2294 7.82878 86.0334 7.72852C85.8374 7.62826 85.6096 7.57812 85.3498 7.57812C85.09 7.57812 84.8599 7.62826 84.6594 7.72852C84.4634 7.82878 84.2971 7.986 84.1604 8.2002C84.0282 8.41439 83.9279 8.6901 83.8596 9.02734C83.7958 9.36003 83.7639 9.76335 83.7639 10.2373V11.9121C83.7639 12.3678 83.798 12.7575 83.8664 13.0811C83.9348 13.4046 84.0373 13.6689 84.174 13.874C84.3107 14.0791 84.4771 14.2318 84.673 14.332C84.8736 14.4277 85.1037 14.4756 85.3635 14.4756C85.6187 14.4756 85.8443 14.4277 86.0402 14.332C86.2408 14.2318 86.4071 14.0791 86.5393 13.874C86.6714 13.6689 86.7717 13.4046 86.84 13.0811C86.9084 12.7575 86.9426 12.3678 86.9426 11.9121ZM93.0908 6.04688V16H91.0879V6.04688H93.0908ZM96.208 10.2783V11.9326H92.585V10.2783H96.208ZM96.5908 6.04688V7.70801H92.585V6.04688H96.5908ZM100.463 6.04688V16H98.4598V6.04688H100.463ZM103.58 10.2783V11.9326H99.9568V10.2783H103.58ZM103.963 6.04688V7.70801H99.9568V6.04688H103.963Z" fill="white"/>
</svg>
