<svg width="16" height="17" viewBox="0 0 16 17" fill="none" xmlns="http://www.w3.org/2000/svg">
<path d="M15 4.25H12V3.4C12 2.49826 11.5786 1.63346 10.8284 0.995837C10.0783 0.358213 9.06087 0 8 0C6.93913 0 5.92172 0.358213 5.17157 0.995837C4.42143 1.63346 4 2.49826 4 3.4V4.25H1C0.734784 4.25 0.48043 4.33955 0.292893 4.49896C0.105357 4.65837 0 4.87457 0 5.1V14.45C0 15.1263 0.316071 15.7749 0.87868 16.2531C1.44129 16.7313 2.20435 17 3 17H13C13.7957 17 14.5587 16.7313 15.1213 16.2531C15.6839 15.7749 16 15.1263 16 14.45V5.1C16 4.87457 15.8946 4.65837 15.7071 4.49896C15.5196 4.33955 15.2652 4.25 15 4.25ZM6 3.4C6 2.94913 6.21072 2.51673 6.58579 2.19792C6.96086 1.87911 7.46957 1.7 8 1.7C8.53043 1.7 9.03914 1.87911 9.41421 2.19792C9.78929 2.51673 10 2.94913 10 3.4V4.25H6V3.4ZM14 14.45C14 14.6754 13.8946 14.8916 13.7071 15.051C13.5196 15.2104 13.2652 15.3 13 15.3H3C2.73478 15.3 2.48043 15.2104 2.29289 15.051C2.10536 14.8916 2 14.6754 2 14.45V5.95H4V6.8C4 7.02543 4.10536 7.24164 4.29289 7.40104C4.48043 7.56045 4.73478 7.65 5 7.65C5.26522 7.65 5.51957 7.56045 5.70711 7.40104C5.89464 7.24164 6 7.02543 6 6.8V5.95H10V6.8C10 7.02543 10.1054 7.24164 10.2929 7.40104C10.4804 7.56045 10.7348 7.65 11 7.65C11.2652 7.65 11.5196 7.56045 11.7071 7.40104C11.8946 7.24164 12 7.02543 12 6.8V5.95H14V14.45Z" fill="white"/>
</svg>
