<svg width="45" height="45" viewBox="0 0 45 45" fill="none" xmlns="http://www.w3.org/2000/svg">
<path fill-rule="evenodd" clip-rule="evenodd" d="M3.47792 6.90908C4.99133 4.19384 7.90749 2.34375 11.25 2.34375H28.125C28.9016 2.34375 29.5312 2.97335 29.5312 3.75V22.5C29.5312 25.3391 27.2141 27.6562 24.375 27.6562H22.5C21.7233 27.6562 21.0937 27.0266 21.0937 26.25C21.0937 25.4734 21.7233 24.8438 22.5 24.8438H24.375C25.6608 24.8438 26.7187 23.7858 26.7187 22.5V5.15625H11.25C8.96747 5.15625 6.97117 6.41861 5.93458 8.27837C5.55646 8.95676 4.69999 9.20018 4.0216 8.82206C3.34321 8.44394 3.0998 7.58747 3.47792 6.90908Z" fill="#8DB600"/>
<path fill-rule="evenodd" clip-rule="evenodd" d="M26.7188 9.375C26.7188 8.59835 27.3484 7.96875 28.125 7.96875H31.5751C33.4385 7.96875 35.1332 8.97749 36.0536 10.5626L36.0583 10.5706L36.0583 10.5706L39.2644 16.1769C39.5133 16.6121 39.5117 17.1469 39.2601 17.5806C39.0085 18.0143 38.5451 18.2812 38.0437 18.2812H35.625C35.3704 18.2812 35.1562 18.4954 35.1562 18.75V24.375C35.1562 24.6296 35.3704 24.8438 35.625 24.8438H41.25C42.0266 24.8438 42.6562 25.4734 42.6562 26.25V31.875C42.6562 35.7642 39.5141 38.9062 35.625 38.9062H33.75C32.9734 38.9062 32.3438 38.2766 32.3438 37.5C32.3438 36.2142 31.2858 35.1562 30 35.1562C28.7142 35.1562 27.6562 36.2142 27.6562 37.5C27.6562 38.2766 27.0266 38.9062 26.25 38.9062H18.75C17.9733 38.9062 17.3438 38.2766 17.3438 37.5C17.3438 36.2142 16.2858 35.1562 15 35.1562C13.7142 35.1562 12.6562 36.2142 12.6562 37.5C12.6562 38.2766 12.0267 38.9062 11.25 38.9062H9.375C5.48585 38.9062 2.34375 35.7642 2.34375 31.875C2.34375 31.0984 2.97335 30.4688 3.75 30.4688C4.52665 30.4688 5.15625 31.0984 5.15625 31.875C5.15625 34.2108 7.03915 36.0938 9.375 36.0938H10.0393C10.6543 33.9339 12.648 32.3438 15 32.3438C17.352 32.3438 19.3457 33.9339 19.9607 36.0938H25.0393C25.6543 33.9339 27.648 32.3438 30 32.3438C32.352 32.3438 34.3457 33.9339 34.9607 36.0938H35.625C37.9608 36.0938 39.8438 34.2108 39.8438 31.875V27.6562H35.625C33.8171 27.6562 32.3438 26.1829 32.3438 24.375V18.75C32.3438 16.9439 33.8141 15.4717 35.6195 15.4688L33.6214 11.9749C33.6207 11.9737 33.6201 11.9726 33.6194 11.9714C33.1894 11.2336 32.4103 10.7812 31.5751 10.7812H29.5312V22.5C29.5312 25.3391 27.2141 27.6562 24.375 27.6562H22.5C21.7234 27.6562 21.0938 27.0266 21.0938 26.25C21.0938 25.4734 21.7234 24.8438 22.5 24.8438H24.375C25.6608 24.8438 26.7188 23.7858 26.7188 22.5V9.375Z" fill="#8DB600"/>
<path fill-rule="evenodd" clip-rule="evenodd" d="M15 35.1562C13.7056 35.1562 12.6562 36.2056 12.6562 37.5C12.6562 38.7944 13.7056 39.8438 15 39.8438C16.2944 39.8438 17.3438 38.7944 17.3438 37.5C17.3438 36.2056 16.2944 35.1562 15 35.1562ZM9.84375 37.5C9.84375 34.6523 12.1523 32.3438 15 32.3438C17.8477 32.3438 20.1562 34.6523 20.1562 37.5C20.1562 40.3477 17.8477 42.6562 15 42.6562C12.1523 42.6562 9.84375 40.3477 9.84375 37.5Z" fill="#8DB600"/>
<path fill-rule="evenodd" clip-rule="evenodd" d="M30 35.1562C28.7056 35.1562 27.6562 36.2056 27.6562 37.5C27.6562 38.7944 28.7056 39.8438 30 39.8438C31.2944 39.8438 32.3438 38.7944 32.3438 37.5C32.3438 36.2056 31.2944 35.1562 30 35.1562ZM24.8438 37.5C24.8438 34.6523 27.1523 32.3438 30 32.3438C32.8477 32.3438 35.1562 34.6523 35.1562 37.5C35.1562 40.3477 32.8477 42.6562 30 42.6562C27.1523 42.6562 24.8438 40.3477 24.8438 37.5Z" fill="#8DB600"/>
<path fill-rule="evenodd" clip-rule="evenodd" d="M35.625 18.2812C35.3704 18.2812 35.1562 18.4954 35.1562 18.75V24.375C35.1562 24.6296 35.3704 24.8438 35.625 24.8438H39.8438V22.8726L37.2266 18.2812H35.625ZM32.3438 18.75C32.3438 16.9421 33.8171 15.4688 35.625 15.4688H38.0437C38.5489 15.4688 39.0153 15.7397 39.2654 16.1786L42.4717 21.8036C42.5927 22.0158 42.6562 22.2558 42.6562 22.5V26.25C42.6562 27.0267 42.0267 27.6562 41.25 27.6562H35.625C33.8171 27.6562 32.3438 26.1829 32.3438 24.375V18.75Z" fill="#8DB600"/>
<path fill-rule="evenodd" clip-rule="evenodd" d="M2.34375 15C2.34375 14.2233 2.97335 13.5938 3.75 13.5938H15C15.7767 13.5938 16.4062 14.2233 16.4062 15C16.4062 15.7767 15.7767 16.4062 15 16.4062H3.75C2.97335 16.4062 2.34375 15.7767 2.34375 15Z" fill="#8DB600"/>
<path fill-rule="evenodd" clip-rule="evenodd" d="M2.34375 20.625C2.34375 19.8483 2.97335 19.2188 3.75 19.2188H11.25C12.0267 19.2188 12.6562 19.8483 12.6562 20.625C12.6562 21.4017 12.0267 22.0312 11.25 22.0312H3.75C2.97335 22.0312 2.34375 21.4017 2.34375 20.625Z" fill="#8DB600"/>
<path fill-rule="evenodd" clip-rule="evenodd" d="M2.34375 26.25C2.34375 25.4733 2.97335 24.8438 3.75 24.8438H7.5C8.27665 24.8438 8.90625 25.4733 8.90625 26.25C8.90625 27.0267 8.27665 27.6562 7.5 27.6562H3.75C2.97335 27.6562 2.34375 27.0267 2.34375 26.25Z" fill="#8DB600"/>
</svg>
