<svg width="18" height="14" viewBox="0 0 18 14" fill="none" xmlns="http://www.w3.org/2000/svg">
<path d="M18 1.66195C17.3261 1.94713 16.6115 2.13447 15.8798 2.21778C16.6508 1.77611 17.2276 1.08141 17.5028 0.263089C16.7787 0.675315 15.9849 0.964211 15.1584 1.12048C14.6026 0.551629 13.8659 0.174362 13.0629 0.0473339C12.2598 -0.0796944 11.4354 0.0506337 10.7178 0.418057C10.0001 0.78548 9.4295 1.36941 9.09459 2.07907C8.75967 2.78873 8.67923 3.58436 8.86578 4.34226C7.39722 4.27198 5.96053 3.907 4.64901 3.27104C3.33748 2.63507 2.18045 1.74234 1.25304 0.650818C0.924805 1.19013 0.752315 1.80321 0.753238 2.42727C0.753238 3.65212 1.40581 4.73422 2.3957 5.36776C1.80937 5.35007 1.23595 5.1986 0.723214 4.92597V4.96905C0.723188 5.78495 1.01818 6.57573 1.55816 7.20729C2.09814 7.83885 2.84986 8.27229 3.68583 8.43411C3.14156 8.57536 2.5708 8.59616 2.01688 8.49493C2.25258 9.19723 2.71202 9.81141 3.33085 10.2514C3.94967 10.6915 4.69688 10.9353 5.46782 10.9489C4.70165 11.5245 3.82437 11.95 2.88615 12.201C1.94794 12.4521 0.967189 12.5237 0 12.4119C1.68814 13.4504 3.65325 14.0017 5.66032 14C12.4545 14 16.1686 8.61657 16.1686 3.94778C16.1686 3.79573 16.165 3.64199 16.158 3.49078C16.8807 2.99101 17.5044 2.37115 18 1.66195Z" fill="#8DB600"/>
</svg>
