<svg width="18" height="14" viewBox="0 0 18 14" fill="none" xmlns="http://www.w3.org/2000/svg">
<path d="M7.2 10L11.871 7L7.2 4V10ZM17.604 2.17C17.721 2.64 17.802 3.27 17.856 4.07C17.919 4.87 17.946 5.56 17.946 6.16L18 7C18 9.19 17.856 10.8 17.604 11.83C17.379 12.73 16.857 13.31 16.047 13.56C15.624 13.69 14.85 13.78 13.662 13.84C12.492 13.91 11.421 13.94 10.431 13.94L9 14C5.229 14 2.88 13.84 1.953 13.56C1.143 13.31 0.621 12.73 0.396 11.83C0.279 11.36 0.198 10.73 0.144 9.93C0.0810001 9.13 0.0539999 8.44 0.0539999 7.84L0 7C0 4.81 0.144 3.2 0.396 2.17C0.621 1.27 1.143 0.69 1.953 0.44C2.376 0.31 3.15 0.22 4.338 0.16C5.508 0.0899998 6.579 0.0599999 7.569 0.0599999L9 0C12.771 0 15.12 0.16 16.047 0.44C16.857 0.69 17.379 1.27 17.604 2.17Z" fill="#8DB600"/>
</svg>
